<svg width="20" height="20" viewBox="0 0 20 20" fill="none" xmlns="http://www.w3.org/2000/svg">
<path d="M19 9V9.5H19.5V9H19ZM1 9H0.5V9.5H1V9ZM6.5 1C6.5 0.723858 6.27614 0.5 6 0.5C5.72386 0.5 5.5 0.723857 5.5 1L6 1L6.5 1ZM5.5 5C5.5 5.27614 5.72386 5.5 6 5.5C6.27614 5.5 6.5 5.27614 6.5 5H6H5.5ZM14.5 1C14.5 0.723858 14.2761 0.5 14 0.5C13.7239 0.5 13.5 0.723857 13.5 1L14 1L14.5 1ZM13.5 5C13.5 5.27614 13.7239 5.5 14 5.5C14.2761 5.5 14.5 5.27614 14.5 5H14H13.5ZM5 4V4.5H15V4V3.5H5V4ZM19 8H18.5V9H19H19.5V8H19ZM19 9V8.5H1V9V9.5H19V9ZM1 9H1.5V8H1H0.5V9H1ZM15 4V4.5C15.9569 4.5 16.6244 4.50106 17.1279 4.56876C17.6171 4.63453 17.8762 4.75483 18.0607 4.93934L18.4142 4.58579L18.7678 4.23223C18.3665 3.83096 17.8612 3.65836 17.2612 3.57768C16.6755 3.49894 15.9287 3.5 15 3.5V4ZM19 8H19.5C19.5 7.07133 19.5011 6.32452 19.4223 5.73883C19.3416 5.13876 19.169 4.63351 18.7678 4.23223L18.4142 4.58579L18.0607 4.93934C18.2452 5.12385 18.3655 5.3829 18.4312 5.87208C18.4989 6.37565 18.5 7.04306 18.5 8H19ZM5 4V3.5C4.07133 3.5 3.32452 3.49894 2.73883 3.57768C2.13876 3.65836 1.63351 3.83096 1.23223 4.23223L1.58579 4.58579L1.93934 4.93934C2.12385 4.75483 2.3829 4.63453 2.87208 4.56876C3.37565 4.50106 4.04306 4.5 5 4.5V4ZM1 8H1.5C1.5 7.04306 1.50106 6.37565 1.56876 5.87208C1.63453 5.3829 1.75483 5.12385 1.93934 4.93934L1.58579 4.58579L1.23223 4.23223C0.830955 4.63351 0.65836 5.13876 0.577682 5.73883C0.498938 6.32452 0.5 7.07133 0.5 8H1ZM19 8H18.5V15H19H19.5V8H19ZM15 19V18.5H5V19V19.5H15V19ZM1 15H1.5V8H1H0.5V15H1ZM5 19V18.5C4.04306 18.5 3.37565 18.4989 2.87208 18.4312C2.3829 18.3655 2.12385 18.2452 1.93934 18.0607L1.58579 18.4142L1.23223 18.7678C1.63351 19.169 2.13876 19.3416 2.73883 19.4223C3.32452 19.5011 4.07133 19.5 5 19.5V19ZM1 15H0.5C0.5 15.9287 0.498938 16.6755 0.577682 17.2612C0.65836 17.8612 0.830955 18.3665 1.23223 18.7678L1.58579 18.4142L1.93934 18.0607C1.75483 17.8762 1.63453 17.6171 1.56876 17.1279C1.50106 16.6244 1.5 15.9569 1.5 15H1ZM19 15H18.5C18.5 15.9569 18.4989 16.6244 18.4312 17.1279C18.3655 17.6171 18.2452 17.8762 18.0607 18.0607L18.4142 18.4142L18.7678 18.7678C19.169 18.3665 19.3416 17.8612 19.4223 17.2612C19.5011 16.6755 19.5 15.9287 19.5 15H19ZM15 19V19.5C15.9287 19.5 16.6755 19.5011 17.2612 19.4223C17.8612 19.3416 18.3665 19.169 18.7678 18.7678L18.4142 18.4142L18.0607 18.0607C17.8762 18.2452 17.6171 18.3655 17.1279 18.4312C16.6244 18.4989 15.9569 18.5 15 18.5V19ZM6 1L5.5 1L5.5 5H6H6.5L6.5 1L6 1ZM14 1L13.5 1L13.5 5H14H14.5L14.5 1L14 1Z" fill="#11293A"/>
</svg>
