<svg width="16" height="21" viewBox="0 0 16 21" fill="none" xmlns="http://www.w3.org/2000/svg">
<path d="M0 16.4808V8.20753C0 4.57416 -1.19209e-07 2.75748 1.17157 1.62874C2.34315 0.5 4.22876 0.5 8 0.5C11.7712 0.5 13.6569 0.5 14.8284 1.62874C16 2.75748 16 4.57416 16 8.20753V16.4808C16 18.7867 16 19.9396 15.2272 20.3523C13.7305 21.1514 10.9232 18.4852 9.59 17.6824C8.8168 17.2168 8.4302 16.984 8 16.984C7.5698 16.984 7.1832 17.2168 6.41 17.6824C5.0768 18.4852 2.26947 21.1514 0.77285 20.3523C5.96046e-08 19.9396 0 18.7867 0 16.4808Z" fill="url(#paint0_linear_1006_1292)"/>
<defs>
<linearGradient id="paint0_linear_1006_1292" x1="0" y1="10.5" x2="16" y2="10.5" gradientUnits="userSpaceOnUse">
<stop stop-color="#E32B6B"/>
<stop offset="1" stop-color="#FB4A3A"/>
</linearGradient>
</defs>
</svg>
