<svg width="116" height="37" viewBox="0 0 116 37" fill="none" xmlns="http://www.w3.org/2000/svg">
<path d="M111.627 30.0218C106.789 27.2618 104.37 29.6768 102.642 27.2618C100.914 24.8468 107.48 18.9818 94.0019 13.1168C94.0019 13.1168 92.9651 0.351686 74.303 0.00668493C55.6408 -0.338317 60.8248 12.7717 55.6408 15.8767C50.8025 18.9818 49.4201 14.1517 44.2361 17.2568C39.3978 20.3618 41.4714 26.9168 37.3242 27.6068C33.1771 28.6418 27.6476 23.4668 22.8093 26.5718C17.971 29.6768 17.9709 32.4368 15.5518 32.4368C13.1326 32.4368 8.63992 30.7118 5.87516 32.4368C3.1104 34.1618 0 36.5768 0 36.5768H115.083C115.429 36.9218 116.811 32.7818 111.627 30.0218Z" fill="#E5F4FD" fill-opacity="0.5"/>
</svg>
