<svg width="112" height="35" viewBox="0 0 112 35" fill="none" xmlns="http://www.w3.org/2000/svg">
<path d="M108.321 28.7117C103.626 26.0721 101.278 28.3817 99.6014 26.0721C97.9246 23.7625 104.296 18.1534 91.2175 12.5443C91.2175 12.5443 90.2114 0.336339 72.102 0.0063932C53.9927 -0.323553 59.0231 12.2144 53.9927 15.1839C49.2977 18.1534 47.9562 13.5342 42.9259 16.5037C38.2309 19.4732 40.243 25.7422 36.2187 26.4021C32.1944 27.3919 26.8287 22.4427 22.1336 25.4122C17.4386 28.3817 17.4386 31.0213 15.0911 31.0213C12.7436 31.0213 8.38397 29.3716 5.70111 31.0213C3.01824 32.671 0 34.9806 0 34.9806H111.674C112.01 35.3106 113.016 31.3512 108.321 28.7117Z" fill="#E5F4FD" fill-opacity="0.5"/>
</svg>
