<svg width="16" height="21" viewBox="0 0 16 21" fill="none" xmlns="http://www.w3.org/2000/svg">
<path d="M0 16.0396V7.76637C0 4.133 -1.19209e-07 2.31632 1.17157 1.18758C2.34315 0.058838 4.22876 0.0588379 8 0.0588379C11.7712 0.0588379 13.6569 0.058838 14.8284 1.18758C16 2.31632 16 4.133 16 7.76637V16.0396C16 18.3455 16 19.4984 15.2272 19.9111C13.7305 20.7102 10.9232 18.044 9.59 17.2412C8.8168 16.7756 8.4302 16.5428 8 16.5428C7.5698 16.5428 7.1832 16.7756 6.41 17.2412C5.0768 18.044 2.26947 20.7102 0.77285 19.9111C5.96046e-08 19.4984 0 18.3455 0 16.0396Z" fill="url(#paint0_linear_544_117440)"/>
<defs>
<linearGradient id="paint0_linear_544_117440" x1="0" y1="10.0588" x2="16" y2="10.0588" gradientUnits="userSpaceOnUse">
<stop stop-color="#E32B6B"/>
<stop offset="1" stop-color="#FB4A3A"/>
</linearGradient>
</defs>
</svg>
