<svg width="185" height="138" viewBox="0 0 185 138" fill="none" xmlns="http://www.w3.org/2000/svg">
<path d="M0 126.314L1.01584 126.513L1.0106 126.534L0 126.314Z" fill="white"/>
<path d="M3.05784 126.911L5.10522 127.309L5.08428 127.409L3.04736 126.974L3.05784 126.911Z" fill="white"/>
<path d="M7.15265 127.707L9.1948 128.105L9.16338 128.262L7.12646 127.838L7.15265 127.707Z" fill="white"/>
<path d="M11.2422 128.498L13.2896 128.885L13.2477 129.1L11.2056 128.686L11.2422 128.498Z" fill="white"/>
<path d="M15.3319 129.272L17.3793 129.66L17.3322 129.922L15.29 129.513L15.3319 129.272Z" fill="white"/>
<path d="M19.4264 130.042L21.4738 130.419L21.4214 130.717L19.374 130.325L19.4264 130.042Z" fill="white"/>
<path d="M23.5268 130.791L25.5795 131.162L25.5166 131.497L23.4692 131.11L23.5268 130.791Z" fill="white"/>
<path d="M27.6268 131.529L29.6794 131.885L29.6166 132.246L27.564 131.874L27.6268 131.529Z" fill="white"/>
<path d="M31.7318 132.235L33.7896 132.581L33.7268 132.958L31.6689 132.607L31.7318 132.235Z" fill="white"/>
<path d="M35.8423 132.911L37.9054 133.225L37.8425 133.618L35.7847 133.298L35.8423 132.911Z" fill="white"/>
<path d="M39.9635 133.523C39.9635 133.523 40.4819 133.592 40.995 133.66C41.5082 133.722 42.0266 133.79 42.0266 133.79L41.9795 134.194C41.9795 134.194 41.4611 134.126 40.9427 134.063C40.4243 133.995 39.9111 133.921 39.9111 133.921L39.9635 133.523Z" fill="white"/>
<path d="M44.0945 134.005C44.0945 134.005 44.2255 134.015 44.4192 134.031C44.5134 134.036 44.6286 134.047 44.7491 134.057C44.8695 134.068 45.0004 134.073 45.1261 134.083C45.1889 134.089 45.257 134.089 45.3198 134.094C45.3827 134.099 45.4455 134.099 45.5083 134.104C45.5712 134.104 45.6288 134.11 45.6811 134.11C45.7387 134.11 45.7911 134.115 45.8382 134.115C45.8854 134.115 45.9325 134.12 45.9691 134.12C46.0058 134.12 46.0424 134.12 46.0686 134.12C46.1262 134.12 46.1576 134.12 46.1576 134.12V134.534C46.1576 134.534 46.1262 134.534 46.0686 134.534C46.0372 134.534 46.0058 134.534 45.9639 134.534C45.922 134.534 45.8801 134.534 45.8278 134.529C45.7806 134.529 45.723 134.529 45.6707 134.523C45.6131 134.523 45.5555 134.518 45.4926 134.518C45.4298 134.513 45.367 134.513 45.3041 134.508C45.2413 134.502 45.1732 134.502 45.1104 134.497C44.9795 134.492 44.8486 134.481 44.7281 134.471C44.6077 134.46 44.4925 134.45 44.393 134.445C44.1993 134.429 44.0684 134.419 44.0684 134.419L44.0945 134.005Z" fill="white"/>
<path d="M48.2212 134.02C48.2212 134.02 48.3521 134.01 48.5458 133.994C48.593 133.989 48.6453 133.984 48.7029 133.979C48.7605 133.973 48.8181 133.968 48.8757 133.963C48.9333 133.958 48.9962 133.952 49.0642 133.947C49.1271 133.942 49.1899 133.937 49.258 133.926C49.3889 133.911 49.5146 133.9 49.635 133.884C49.7554 133.874 49.8706 133.858 49.9649 133.848C50.1586 133.827 50.2895 133.811 50.2895 133.811L50.3367 134.219C50.3367 134.219 50.2057 134.235 50.012 134.256C49.9125 134.267 49.8025 134.282 49.6769 134.293C49.5564 134.303 49.4255 134.319 49.2946 134.335C49.2318 134.34 49.1637 134.345 49.1009 134.356C49.038 134.361 48.9752 134.366 48.9124 134.377C48.8495 134.382 48.7919 134.387 48.7343 134.392C48.6767 134.397 48.6244 134.403 48.5773 134.408C48.3835 134.424 48.2526 134.439 48.2526 134.439L48.2212 134.02Z" fill="white"/>
<path d="M52.3525 133.555C52.3525 133.555 52.8709 133.487 53.3841 133.413C53.8972 133.34 54.4156 133.267 54.4156 133.267L54.4732 133.665C54.4732 133.665 53.9548 133.738 53.4417 133.811C52.9233 133.879 52.4101 133.953 52.4101 133.953L52.3525 133.555Z" fill="white"/>
<path d="M56.4785 132.968L58.5416 132.649L58.5992 133.042L56.5414 133.361L56.4785 132.968Z" fill="white"/>
<path d="M60.5942 132.324L62.6521 131.989L62.7097 132.361L60.6571 132.707L60.5942 132.324Z" fill="white"/>
<path d="M64.7046 131.649L66.7572 131.304L66.8148 131.649L64.7622 132.011L64.7046 131.649Z" fill="white"/>
<path d="M68.8101 130.953L70.8627 130.591L70.9203 130.911L68.8677 131.282L68.8101 130.953Z" fill="white"/>
<path d="M72.9155 130.236L74.9681 129.869L75.0205 130.157L72.9731 130.534L72.9155 130.236Z" fill="white"/>
<path d="M77.0205 129.503L79.0679 129.136L79.115 129.377L77.0676 129.77L77.0205 129.503Z" fill="white"/>
<path d="M81.1206 128.764L83.1732 128.393L83.2099 128.581L81.1625 128.984L81.1206 128.764Z" fill="white"/>
<path d="M85.2207 128.016L87.2733 127.639L87.2995 127.775L85.2521 128.178L85.2207 128.016Z" fill="white"/>
<path d="M89.3208 127.262L91.3734 126.885L91.3839 126.948L89.3417 127.362L89.3208 127.262Z" fill="white"/>
<path d="M93.4312 126.503L94.4418 126.314L93.4364 126.524L93.4312 126.503Z" fill="white"/>
<path d="M87.6801 110.154C85.8841 110.154 84.0881 109.468 82.7214 108.101L67.1487 92.5321C64.4101 89.7941 64.4101 85.3546 67.1487 82.6114C69.8872 79.8734 74.3276 79.8734 77.0714 82.6114L87.6854 93.2231L122.292 58.6238C125.031 55.8858 129.471 55.8858 132.215 58.6238C134.953 61.3618 134.953 65.8012 132.215 68.5445L92.6389 108.096C91.2722 109.468 89.4762 110.154 87.6801 110.154Z" fill="#FDDEDE"/>
<path d="M85.5854 108.583C83.7894 108.583 81.9933 107.898 80.6267 106.531L65.0539 90.9618C62.3154 88.2238 62.3154 83.7843 65.0539 81.0411C67.7925 78.3031 72.2329 78.3031 74.9767 81.0411L85.5906 91.6528L120.197 57.0535C122.936 54.3155 127.376 54.3155 130.12 57.0535C132.859 59.7915 132.859 64.2309 130.12 66.9742L90.5442 106.526C89.1775 107.898 87.3815 108.583 85.5854 108.583Z" fill="url(#paint0_linear_483_10839)"/>
<circle cx="97" cy="79" r="51.5" stroke="url(#paint1_linear_483_10839)"/>
<circle cx="101" cy="47" r="8" fill="#FDDEDE"/>
<circle opacity="0.5" cx="117" cy="8" r="8" fill="#FDDEDE"/>
<circle opacity="0.5" cx="157" cy="119" r="8" fill="#FDDEDE"/>
<circle cx="136" cy="86" r="4" fill="#FDDEDE"/>
<circle opacity="0.5" cx="134" cy="20" r="4" fill="#FDDEDE"/>
<circle opacity="0.5" cx="181" cy="40" r="4" fill="#FDDEDE"/>
<circle opacity="0.5" cx="25" cy="59" r="4" fill="#FDDEDE"/>
<circle opacity="0.5" cx="27" cy="105" r="4" fill="#FDDEDE"/>
<circle opacity="0.5" cx="48" cy="20" r="4" fill="#FDDEDE"/>
<circle cx="121" cy="109" r="4" fill="#FDDEDE"/>
<rect opacity="0.5" x="76" y="15" width="5" height="5" fill="#FDDEDE"/>
<rect opacity="0.5" x="157" y="63" width="5" height="5" fill="#FDDEDE"/>
<rect opacity="0.5" x="74" y="133" width="5" height="5" fill="#FDDEDE"/>
<defs>
<linearGradient id="paint0_linear_483_10839" x1="63" y1="81.7917" x2="132.174" y2="81.7917" gradientUnits="userSpaceOnUse">
<stop stop-color="#E32B6B"/>
<stop offset="1" stop-color="#FB4A3A"/>
</linearGradient>
<linearGradient id="paint1_linear_483_10839" x1="45" y1="79" x2="149" y2="79" gradientUnits="userSpaceOnUse">
<stop stop-color="#E32B6B"/>
<stop offset="1" stop-color="#FB4A3A"/>
</linearGradient>
</defs>
</svg>
