<svg width="25" height="24" viewBox="0 0 25 24" fill="none" xmlns="http://www.w3.org/2000/svg">
<g clip-path="url(#clip0_981_325)">
<path d="M23.0106 8.75157L22.7269 8.58837L24.3167 7.66915L24.3187 6.83923L18.2017 3.30703C17.427 2.85843 16.7259 2.83617 16.2349 3.16039V3.15633L1.48686 11.6725L1.42178 11.7095L1.38889 11.7277V11.7299C0.94257 12.0232 0.66921 12.6044 0.66749 13.4092C0.663661 15.1071 1.85983 17.1822 3.33789 18.0342L8.15449 20.8146C8.64167 21.0956 9.08043 21.1266 9.38567 20.9494V20.9511L9.42044 20.931L24.2006 12.3964L24.2309 12.3798V12.3774C24.4997 12.2233 24.6657 11.9079 24.6674 11.4584C24.6718 10.4943 23.9274 9.27962 23.0106 8.75162L23.0106 8.75157ZM15.5456 4.38318L15.6515 4.32224C15.6721 4.30997 15.6904 4.29989 15.7129 4.28747L16.0506 4.09185C16.0573 4.08778 16.0654 4.08583 16.0712 4.08177C16.5216 3.84537 17.1538 3.64137 17.965 4.0206C18.0015 4.03497 18.0368 4.0513 18.073 4.07169C18.1137 4.09185 18.1545 4.11442 18.1977 4.13864L23.5993 7.25525L22.0093 8.17275L21.2898 8.58845L19.7 9.50595L18.9803 9.92165L9.47307 15.411L6.37487 13.6231L5.65705 13.2076L3.35345 11.8787C3.20899 11.795 3.06447 11.7256 2.92555 11.6704L15.5456 4.38318ZM8.15663 19.983L3.33982 17.2028C2.262 16.5809 1.38716 15.0668 1.39154 13.8274C1.39584 12.588 2.27592 12.0867 3.35208 12.7104L4.93606 13.6234L3.34872 14.5409L3.34419 15.3706L3.34615 15.3723L8.16035 18.1527C8.68043 18.4522 9.10239 19.1064 9.10019 19.6119C9.09823 20.1157 8.67613 20.2829 8.15651 19.9829L8.15663 19.983ZM23.9436 11.1058C23.9213 11.5891 23.6383 11.8786 23.0633 12.223C23.0472 12.2333 23.0304 12.2412 23.0141 12.2515C22.9896 12.2659 22.9656 12.2823 22.9389 12.2964C22.9207 12.3067 22.9039 12.3168 22.8876 12.325L9.8154 19.8732C9.74439 18.9374 9.03322 17.8222 8.16446 17.3228L4.06766 14.9564L5.65524 14.0396L9.47124 16.2408L19.6976 10.3378L20.4169 9.91997L22.0072 9.00271L23.008 9.58185C23.5259 9.88161 23.9476 10.5358 23.9456 11.0413C23.9459 11.0631 23.9459 11.0854 23.9435 11.1058L23.9436 11.1058Z" fill="#7A7A7A"/>
<path d="M8.09365 12.6303L9.67599 13.5757L13.7456 11.2909L12.1075 10.3127L11.401 9.89033L9.78701 8.92603L5.71741 11.2106L7.38687 12.208L8.09365 12.6303Z" fill="#7A7A7A"/>
<path d="M15.8206 6.45591L16.3695 6.14795L17.7147 5.39295L17.2527 5.11671L16.9232 4.91968L16.7202 5.03366L16.2373 5.30484L15.5972 5.66414L10.5956 8.47194L11.3873 8.94498L15.8206 6.45591Z" fill="#7A7A7A"/>
<path d="M16.1428 7.19288L13.582 8.63022L12.179 9.41812L12.1984 9.42991L12.9054 9.85209L12.9709 9.89116L16.5543 7.87956L17.0739 7.58768L18.3325 6.88088L19.0621 6.4712L19.2985 6.33901L18.5067 5.86597L18.2566 6.00612L18.1926 6.04261L16.6616 6.90183L16.1428 7.19288Z" fill="#7A7A7A"/>
<path d="M17.6142 8.20211L17.0495 8.51915L13.7623 10.364L14.5543 10.837L17.6547 9.09657L18.332 8.71617L19.9438 7.81163L20.6737 7.40171L20.882 7.28475L20.0905 6.81201L19.868 6.93654L19.1389 7.34622L17.6142 8.20211Z" fill="#7A7A7A"/>
<path d="M22.5906 10.7849C22.5488 10.734 22.4828 10.6642 22.4072 10.6197L22.0064 10.3882L9.97644 17.3348L10.1332 17.5506C10.2157 17.6634 10.293 17.78 10.366 17.8993L10.4879 18.0995L22.2841 11.2875L22.3844 11.2318C22.3844 11.2318 22.0312 11.4326 22.3835 11.2308C22.7362 11.0286 22.5905 10.7849 22.5905 10.7849L22.5906 10.7849Z" fill="#7A7A7A"/>
</g>
<defs>
<clipPath id="clip0_981_325">
<rect width="24" height="24" fill="white" transform="translate(0.666626)"/>
</clipPath>
</defs>
</svg>
