<svg width="16" height="20" viewBox="0 0 16 20" fill="none" xmlns="http://www.w3.org/2000/svg">
<path d="M4.49947 15.5588C4.49947 17.4918 6.06647 19.0588 7.99947 19.0588C9.93247 19.0588 11.4995 17.4918 11.4995 15.5588M2.23504 15.7005C6.56467 16.1698 9.44395 16.1709 13.7646 15.7009C14.4123 15.6305 14.847 14.9892 14.7489 14.3451C14.4768 12.5575 14.3873 9.9725 14.3758 7.55685C14.3589 4.01581 11.5406 1.05884 7.99947 1.05884C4.45838 1.05884 1.64003 4.01581 1.62315 7.55685C1.61164 9.97223 1.52212 12.5569 1.25011 14.3445C1.15207 14.9888 1.5871 15.6302 2.23504 15.7005Z" stroke="#111111"/>
</svg>
