<svg width="20" height="22" viewBox="0 0 20 22" fill="none" xmlns="http://www.w3.org/2000/svg">
<path d="M16.12 10.9256L9.39893 17.6466C7.68679 19.3678 5.3918 19.1948 3.92556 17.7195C2.4411 16.2441 2.27717 13.9582 3.99841 12.237L13.1875 3.04791C14.1893 2.04612 15.6919 1.86398 16.6664 2.84755C17.65 3.83112 17.4678 5.31558 16.466 6.32647L7.45001 15.3516C7.04019 15.7614 6.55751 15.643 6.27519 15.3698C6.00198 15.0784 5.88359 14.6048 6.29341 14.1859L12.5773 7.902C12.8961 7.58325 12.9143 7.11878 12.6137 6.80914C12.3041 6.51772 11.8396 6.52682 11.5209 6.84557L5.20055 13.1568C4.2352 14.1404 4.27163 15.6339 5.1368 16.4991C6.07483 17.4371 7.49554 17.4189 8.47911 16.4354L17.5407 7.37378C19.2984 5.61611 19.2346 3.30291 17.6955 1.7547C16.1837 0.252023 13.8341 0.142737 12.0673 1.90041L2.8236 11.1623C0.519497 13.4664 0.674318 16.7723 2.76895 18.867C4.86359 20.9525 8.17858 21.1164 10.4827 18.8214L17.2493 12.0548C17.5589 11.7543 17.5498 11.1988 17.2402 10.8982C16.9396 10.5795 16.4387 10.625 16.12 10.9256Z" fill="#7A7A7A"/>
</svg>
