<svg width="19" height="19" viewBox="0 0 19 19" fill="none" xmlns="http://www.w3.org/2000/svg">
<path d="M11.0638 18.3653C11.7113 18.3653 12.1714 17.8285 12.4866 17.0106L18.1096 2.31422C18.2544 1.93935 18.3396 1.59856 18.3396 1.3089C18.3396 0.704 17.9563 0.329135 17.3514 0.329135C17.0702 0.329135 16.7294 0.414331 16.346 0.559166L1.58998 6.2077C0.857287 6.48885 0.303509 6.94892 0.303509 7.60493C0.303509 8.4143 0.908405 8.72101 1.74333 8.9766L7.89453 10.7742L9.67514 16.8573C9.93073 17.7263 10.2374 18.3653 11.0638 18.3653ZM8.38015 9.23219L3.0298 7.59641C2.90201 7.56233 2.85941 7.51973 2.85941 7.46862C2.85941 7.40898 2.89349 7.36638 3.00424 7.32378L13.2534 3.41325C13.9776 3.1321 14.6847 2.79132 15.443 2.44201C14.8295 2.93615 14.0883 3.53253 13.5771 4.04371L8.38015 9.23219ZM11.2087 15.8179C11.149 15.8179 11.1064 15.7668 11.0724 15.639L9.43659 10.2886L14.6251 5.09163C15.1277 4.58897 15.7497 3.8222 16.2353 3.20026C15.886 3.97555 15.5367 4.68268 15.2555 5.41538L11.345 15.656C11.3024 15.7668 11.2598 15.8179 11.2087 15.8179Z" fill="white"/>
</svg>
