<svg width="15" height="18" viewBox="0 0 15 18" fill="none" xmlns="http://www.w3.org/2000/svg">
<path d="M4.66667 8.99478L6.33333 10.6614L9.66667 7.32811M13.8333 9.82811C13.8333 13.9948 10.9167 16.0781 7.45 17.2864C7.26847 17.348 7.07128 17.345 6.89167 17.2781C3.41667 16.0781 0.5 13.9948 0.5 9.82811V3.99478C0.5 3.77377 0.587798 3.5618 0.744078 3.40552C0.900358 3.24924 1.11232 3.16145 1.33333 3.16145C3 3.16145 5.08333 2.16145 6.53333 0.89478C6.70988 0.743945 6.93446 0.661072 7.16667 0.661072C7.39887 0.661072 7.62345 0.743945 7.8 0.89478C9.25833 2.16978 11.3333 3.16145 13 3.16145C13.221 3.16145 13.433 3.24924 13.5893 3.40552C13.7455 3.5618 13.8333 3.77377 13.8333 3.99478V9.82811Z" stroke="#11293A" stroke-linecap="round" stroke-linejoin="round"/>
</svg>
